<?xml version="1.0" encoding="iso-8859-1"?>
<!-- Generator: Adobe Illustrator 19.0.0, SVG Export Plug-In . SVG Version: 6.00 Build 0)  -->
<svg version="1.1" id="Layer_1" xmlns="http://www.w3.org/2000/svg" xmlns:xlink="http://www.w3.org/1999/xlink" x="0px" y="0px"
	 viewBox="0 0 512 512" style="enable-background:new 0 0 512 512;" xml:space="preserve">
<path style="fill:#E21B1B;" d="M256,512l144.376-266.624c13.224-23.752,20.816-51.072,20.816-80.184C421.192,73.96,347.232,0,256,0
	V512z"/>
<path style="fill:#F91E1E;" d="M256,512L111.624,245.376c-13.224-23.752-20.816-51.072-20.816-80.184C90.808,73.96,164.768,0,256,0
	V512z"/>
<path style="fill:#FFFFFF;" d="M256,90.608c40.368,0,73.088,32.72,73.088,73.088s-32.72,73.088-73.088,73.088
	s-73.088-32.72-73.088-73.088S215.632,90.608,256,90.608 M256,82.608c-44.712,0-81.088,36.376-81.088,81.088
	s36.376,81.088,81.088,81.088s81.088-36.376,81.088-81.088S300.712,82.608,256,82.608L256,82.608z"/>
<g>
</g>
<g>
</g>
<g>
</g>
<g>
</g>
<g>
</g>
<g>
</g>
<g>
</g>
<g>
</g>
<g>
</g>
<g>
</g>
<g>
</g>
<g>
</g>
<g>
</g>
<g>
</g>
<g>
</g>
</svg>
